<?xml version="1.0" encoding="UTF-8" standalone="no"?>
<!DOCTYPE svg PUBLIC "-//W3C//DTD SVG 1.1//EN"
 "http://www.w3.org/Graphics/SVG/1.1/DTD/svg11.dtd">
<!-- Generated by graphviz version 2.49.3 (20211104.1129)
 -->
<!-- Title: snakemake_dag Pages: 1 -->
<svg width="1925pt" height="404pt"
 viewBox="0.00 0.00 1925.00 404.00" xmlns="http://www.w3.org/2000/svg" xmlns:xlink="http://www.w3.org/1999/xlink">
<g id="graph0" class="graph" transform="scale(1 1) rotate(0) translate(4 400)">
<title>snakemake_dag</title>
<polygon fill="white" stroke="transparent" points="-4,4 -4,-400 1921,-400 1921,4 -4,4"/>
<!-- 0 -->
<g id="node1" class="node">
<title>0</title>
<path fill="none" stroke="#56d8c1" stroke-width="2" stroke-dasharray="5,2" d="M325,-36C325,-36 278,-36 278,-36 272,-36 266,-30 266,-24 266,-24 266,-12 266,-12 266,-6 272,0 278,0 278,0 325,0 325,0 331,0 337,-6 337,-12 337,-12 337,-24 337,-24 337,-30 331,-36 325,-36"/>
<text text-anchor="middle" x="301.5" y="-21" font-family="sans" font-size="10.00">bedtools</text>
<text text-anchor="middle" x="301.5" y="-10" font-family="sans" font-size="10.00">sample: R3</text>
</g>
<!-- 1 -->
<g id="node2" class="node">
<title>1</title>
<path fill="none" stroke="#59d856" stroke-width="2" stroke-dasharray="5,2" d="M270.5,-108C270.5,-108 240.5,-108 240.5,-108 234.5,-108 228.5,-102 228.5,-96 228.5,-96 228.5,-84 228.5,-84 228.5,-78 234.5,-72 240.5,-72 240.5,-72 270.5,-72 270.5,-72 276.5,-72 282.5,-78 282.5,-84 282.5,-84 282.5,-96 282.5,-96 282.5,-102 276.5,-108 270.5,-108"/>
<text text-anchor="middle" x="255.5" y="-87.5" font-family="sans" font-size="10.00">macs2</text>
</g>
<!-- 1&#45;&gt;0 -->
<g id="edge1" class="edge">
<title>1&#45;&gt;0</title>
<path fill="none" stroke="grey" stroke-width="2" d="M266.87,-71.7C272.22,-63.56 278.7,-53.69 284.61,-44.7"/>
<polygon fill="grey" stroke="grey" stroke-width="2" points="287.69,-46.38 290.26,-36.1 281.84,-42.54 287.69,-46.38"/>
</g>
<!-- 2 -->
<g id="node3" class="node">
<title>2</title>
<path fill="none" stroke="#d88d56" stroke-width="2" stroke-dasharray="5,2" d="M284.5,-180C284.5,-180 180.5,-180 180.5,-180 174.5,-180 168.5,-174 168.5,-168 168.5,-168 168.5,-156 168.5,-156 168.5,-150 174.5,-144 180.5,-144 180.5,-144 284.5,-144 284.5,-144 290.5,-144 296.5,-150 296.5,-156 296.5,-156 296.5,-168 296.5,-168 296.5,-174 290.5,-180 284.5,-180"/>
<text text-anchor="middle" x="232.5" y="-165" font-family="sans" font-size="10.00">markduplicates</text>
<text text-anchor="middle" x="232.5" y="-154" font-family="sans" font-size="10.00">sample: ss_50k_0h_R3</text>
</g>
<!-- 2&#45;&gt;1 -->
<g id="edge3" class="edge">
<title>2&#45;&gt;1</title>
<path fill="none" stroke="grey" stroke-width="2" d="M238.19,-143.7C240.75,-135.9 243.83,-126.51 246.68,-117.83"/>
<polygon fill="grey" stroke="grey" stroke-width="2" points="250.08,-118.7 249.88,-108.1 243.43,-116.51 250.08,-118.7"/>
</g>
<!-- 3 -->
<g id="node4" class="node">
<title>3</title>
<path fill="none" stroke="#bed856" stroke-width="2" stroke-dasharray="5,2" d="M285.5,-252C285.5,-252 169.5,-252 169.5,-252 163.5,-252 157.5,-246 157.5,-240 157.5,-240 157.5,-228 157.5,-228 157.5,-222 163.5,-216 169.5,-216 169.5,-216 285.5,-216 285.5,-216 291.5,-216 297.5,-222 297.5,-228 297.5,-228 297.5,-240 297.5,-240 297.5,-246 291.5,-252 285.5,-252"/>
<text text-anchor="middle" x="227.5" y="-237" font-family="sans" font-size="10.00">bowtie2</text>
<text text-anchor="middle" x="227.5" y="-226" font-family="sans" font-size="10.00">samplesB: ss_50k_0h_R3</text>
</g>
<!-- 3&#45;&gt;2 -->
<g id="edge4" class="edge">
<title>3&#45;&gt;2</title>
<path fill="none" stroke="grey" stroke-width="2" d="M228.74,-215.7C229.29,-207.98 229.95,-198.71 230.56,-190.11"/>
<polygon fill="grey" stroke="grey" stroke-width="2" points="234.06,-190.33 231.28,-180.1 227.07,-189.83 234.06,-190.33"/>
</g>
<!-- 4 -->
<g id="node5" class="node">
<title>4</title>
<path fill="none" stroke="#88d856" stroke-width="2" stroke-dasharray="5,2" d="M287,-324C287,-324 162,-324 162,-324 156,-324 150,-318 150,-312 150,-312 150,-300 150,-300 150,-294 156,-288 162,-288 162,-288 287,-288 287,-288 293,-288 299,-294 299,-300 299,-300 299,-312 299,-312 299,-318 293,-324 287,-324"/>
<text text-anchor="middle" x="224.5" y="-309" font-family="sans" font-size="10.00">cutadapt</text>
<text text-anchor="middle" x="224.5" y="-298" font-family="sans" font-size="10.00">samplesCut: ss_50k_0h_R3</text>
</g>
<!-- 4&#45;&gt;3 -->
<g id="edge5" class="edge">
<title>4&#45;&gt;3</title>
<path fill="none" stroke="grey" stroke-width="2" d="M225.24,-287.7C225.57,-279.98 225.97,-270.71 226.34,-262.11"/>
<polygon fill="grey" stroke="grey" stroke-width="2" points="229.84,-262.25 226.77,-252.1 222.84,-261.95 229.84,-262.25"/>
</g>
<!-- 5 -->
<g id="node6" class="node">
<title>5</title>
<path fill="none" stroke="#56c1d8" stroke-width="2" stroke-dasharray="5,2" d="M127,-396C127,-396 12,-396 12,-396 6,-396 0,-390 0,-384 0,-384 0,-372 0,-372 0,-366 6,-360 12,-360 12,-360 127,-360 127,-360 133,-360 139,-366 139,-372 139,-372 139,-384 139,-384 139,-390 133,-396 127,-396"/>
<text text-anchor="middle" x="69.5" y="-381" font-family="sans" font-size="10.00">unzip</text>
<text text-anchor="middle" x="69.5" y="-370" font-family="sans" font-size="10.00">sample: ss_50k_0h_R3_1</text>
</g>
<!-- 5&#45;&gt;4 -->
<g id="edge6" class="edge">
<title>5&#45;&gt;4</title>
<path fill="none" stroke="grey" stroke-width="2" d="M107.42,-359.88C128.51,-350.35 154.96,-338.41 177.37,-328.28"/>
<polygon fill="grey" stroke="grey" stroke-width="2" points="179.03,-331.37 186.71,-324.07 176.15,-324.99 179.03,-331.37"/>
</g>
<!-- 6 -->
<g id="node7" class="node">
<title>6</title>
<path fill="none" stroke="#56c1d8" stroke-width="2" stroke-dasharray="5,2" d="M284,-396C284,-396 169,-396 169,-396 163,-396 157,-390 157,-384 157,-384 157,-372 157,-372 157,-366 163,-360 169,-360 169,-360 284,-360 284,-360 290,-360 296,-366 296,-372 296,-372 296,-384 296,-384 296,-390 290,-396 284,-396"/>
<text text-anchor="middle" x="226.5" y="-381" font-family="sans" font-size="10.00">unzip</text>
<text text-anchor="middle" x="226.5" y="-370" font-family="sans" font-size="10.00">sample: ss_50k_0h_R3_2</text>
</g>
<!-- 6&#45;&gt;4 -->
<g id="edge7" class="edge">
<title>6&#45;&gt;4</title>
<path fill="none" stroke="grey" stroke-width="2" d="M226.01,-359.7C225.79,-351.98 225.52,-342.71 225.27,-334.11"/>
<polygon fill="grey" stroke="grey" stroke-width="2" points="228.77,-334 224.99,-324.1 221.78,-334.2 228.77,-334"/>
</g>
<!-- 7 -->
<g id="node8" class="node">
<title>7</title>
<path fill="none" stroke="#59d856" stroke-width="2" stroke-dasharray="5,2" d="M361.5,-108C361.5,-108 331.5,-108 331.5,-108 325.5,-108 319.5,-102 319.5,-96 319.5,-96 319.5,-84 319.5,-84 319.5,-78 325.5,-72 331.5,-72 331.5,-72 361.5,-72 361.5,-72 367.5,-72 373.5,-78 373.5,-84 373.5,-84 373.5,-96 373.5,-96 373.5,-102 367.5,-108 361.5,-108"/>
<text text-anchor="middle" x="346.5" y="-87.5" font-family="sans" font-size="10.00">macs2</text>
</g>
<!-- 7&#45;&gt;0 -->
<g id="edge2" class="edge">
<title>7&#45;&gt;0</title>
<path fill="none" stroke="grey" stroke-width="2" d="M335.38,-71.7C330.14,-63.56 323.8,-53.69 318.02,-44.7"/>
<polygon fill="grey" stroke="grey" stroke-width="2" points="320.85,-42.62 312.5,-36.1 314.96,-46.41 320.85,-42.62"/>
</g>
<!-- 8 -->
<g id="node9" class="node">
<title>8</title>
<path fill="none" stroke="#d88d56" stroke-width="2" stroke-dasharray="5,2" d="M439.5,-180C439.5,-180 329.5,-180 329.5,-180 323.5,-180 317.5,-174 317.5,-168 317.5,-168 317.5,-156 317.5,-156 317.5,-150 323.5,-144 329.5,-144 329.5,-144 439.5,-144 439.5,-144 445.5,-144 451.5,-150 451.5,-156 451.5,-156 451.5,-168 451.5,-168 451.5,-174 445.5,-180 439.5,-180"/>
<text text-anchor="middle" x="384.5" y="-165" font-family="sans" font-size="10.00">markduplicates</text>
<text text-anchor="middle" x="384.5" y="-154" font-family="sans" font-size="10.00">sample: ss_50k_24h_R3</text>
</g>
<!-- 8&#45;&gt;7 -->
<g id="edge8" class="edge">
<title>8&#45;&gt;7</title>
<path fill="none" stroke="grey" stroke-width="2" d="M375.11,-143.7C370.74,-135.64 365.44,-125.89 360.6,-116.98"/>
<polygon fill="grey" stroke="grey" stroke-width="2" points="363.63,-115.22 355.79,-108.1 357.48,-118.56 363.63,-115.22"/>
</g>
<!-- 9 -->
<g id="node10" class="node">
<title>9</title>
<path fill="none" stroke="#bed856" stroke-width="2" stroke-dasharray="5,2" d="M451.5,-252C451.5,-252 329.5,-252 329.5,-252 323.5,-252 317.5,-246 317.5,-240 317.5,-240 317.5,-228 317.5,-228 317.5,-222 323.5,-216 329.5,-216 329.5,-216 451.5,-216 451.5,-216 457.5,-216 463.5,-222 463.5,-228 463.5,-228 463.5,-240 463.5,-240 463.5,-246 457.5,-252 451.5,-252"/>
<text text-anchor="middle" x="390.5" y="-237" font-family="sans" font-size="10.00">bowtie2</text>
<text text-anchor="middle" x="390.5" y="-226" font-family="sans" font-size="10.00">samplesB: ss_50k_24h_R3</text>
</g>
<!-- 9&#45;&gt;8 -->
<g id="edge9" class="edge">
<title>9&#45;&gt;8</title>
<path fill="none" stroke="grey" stroke-width="2" d="M389.02,-215.7C388.36,-207.98 387.56,-198.71 386.82,-190.11"/>
<polygon fill="grey" stroke="grey" stroke-width="2" points="390.31,-189.77 385.97,-180.1 383.33,-190.37 390.31,-189.77"/>
</g>
<!-- 10 -->
<g id="node11" class="node">
<title>10</title>
<path fill="none" stroke="#88d856" stroke-width="2" stroke-dasharray="5,2" d="M460,-324C460,-324 329,-324 329,-324 323,-324 317,-318 317,-312 317,-312 317,-300 317,-300 317,-294 323,-288 329,-288 329,-288 460,-288 460,-288 466,-288 472,-294 472,-300 472,-300 472,-312 472,-312 472,-318 466,-324 460,-324"/>
<text text-anchor="middle" x="394.5" y="-309" font-family="sans" font-size="10.00">cutadapt</text>
<text text-anchor="middle" x="394.5" y="-298" font-family="sans" font-size="10.00">samplesCut: ss_50k_24h_R3</text>
</g>
<!-- 10&#45;&gt;9 -->
<g id="edge10" class="edge">
<title>10&#45;&gt;9</title>
<path fill="none" stroke="grey" stroke-width="2" d="M393.51,-287.7C393.07,-279.98 392.54,-270.71 392.05,-262.11"/>
<polygon fill="grey" stroke="grey" stroke-width="2" points="395.54,-261.89 391.48,-252.1 388.55,-262.29 395.54,-261.89"/>
</g>
<!-- 11 -->
<g id="node12" class="node">
<title>11</title>
<path fill="none" stroke="#56c1d8" stroke-width="2" stroke-dasharray="5,2" d="M452,-396C452,-396 331,-396 331,-396 325,-396 319,-390 319,-384 319,-384 319,-372 319,-372 319,-366 325,-360 331,-360 331,-360 452,-360 452,-360 458,-360 464,-366 464,-372 464,-372 464,-384 464,-384 464,-390 458,-396 452,-396"/>
<text text-anchor="middle" x="391.5" y="-381" font-family="sans" font-size="10.00">unzip</text>
<text text-anchor="middle" x="391.5" y="-370" font-family="sans" font-size="10.00">sample: ss_50k_24h_R3_1</text>
</g>
<!-- 11&#45;&gt;10 -->
<g id="edge11" class="edge">
<title>11&#45;&gt;10</title>
<path fill="none" stroke="grey" stroke-width="2" d="M392.24,-359.7C392.57,-351.98 392.97,-342.71 393.34,-334.11"/>
<polygon fill="grey" stroke="grey" stroke-width="2" points="396.84,-334.25 393.77,-324.1 389.84,-333.95 396.84,-334.25"/>
</g>
<!-- 12 -->
<g id="node13" class="node">
<title>12</title>
<path fill="none" stroke="#56c1d8" stroke-width="2" stroke-dasharray="5,2" d="M615,-396C615,-396 494,-396 494,-396 488,-396 482,-390 482,-384 482,-384 482,-372 482,-372 482,-366 488,-360 494,-360 494,-360 615,-360 615,-360 621,-360 627,-366 627,-372 627,-372 627,-384 627,-384 627,-390 621,-396 615,-396"/>
<text text-anchor="middle" x="554.5" y="-381" font-family="sans" font-size="10.00">unzip</text>
<text text-anchor="middle" x="554.5" y="-370" font-family="sans" font-size="10.00">sample: ss_50k_24h_R3_2</text>
</g>
<!-- 12&#45;&gt;10 -->
<g id="edge12" class="edge">
<title>12&#45;&gt;10</title>
<path fill="none" stroke="grey" stroke-width="2" d="M515.36,-359.88C493.49,-350.31 466.04,-338.3 442.84,-328.15"/>
<polygon fill="grey" stroke="grey" stroke-width="2" points="444.08,-324.87 433.51,-324.07 441.27,-331.28 444.08,-324.87"/>
</g>
<!-- 13 -->
<g id="node14" class="node">
<title>13</title>
<path fill="none" stroke="#56d8c1" stroke-width="2" stroke-dasharray="5,2" d="M970,-36C970,-36 923,-36 923,-36 917,-36 911,-30 911,-24 911,-24 911,-12 911,-12 911,-6 917,0 923,0 923,0 970,0 970,0 976,0 982,-6 982,-12 982,-12 982,-24 982,-24 982,-30 976,-36 970,-36"/>
<text text-anchor="middle" x="946.5" y="-21" font-family="sans" font-size="10.00">bedtools</text>
<text text-anchor="middle" x="946.5" y="-10" font-family="sans" font-size="10.00">sample: R1</text>
</g>
<!-- 14 -->
<g id="node15" class="node">
<title>14</title>
<path fill="none" stroke="#59d856" stroke-width="2" stroke-dasharray="5,2" d="M915.5,-108C915.5,-108 885.5,-108 885.5,-108 879.5,-108 873.5,-102 873.5,-96 873.5,-96 873.5,-84 873.5,-84 873.5,-78 879.5,-72 885.5,-72 885.5,-72 915.5,-72 915.5,-72 921.5,-72 927.5,-78 927.5,-84 927.5,-84 927.5,-96 927.5,-96 927.5,-102 921.5,-108 915.5,-108"/>
<text text-anchor="middle" x="900.5" y="-87.5" font-family="sans" font-size="10.00">macs2</text>
</g>
<!-- 14&#45;&gt;13 -->
<g id="edge13" class="edge">
<title>14&#45;&gt;13</title>
<path fill="none" stroke="grey" stroke-width="2" d="M911.87,-71.7C917.22,-63.56 923.7,-53.69 929.61,-44.7"/>
<polygon fill="grey" stroke="grey" stroke-width="2" points="932.69,-46.38 935.26,-36.1 926.84,-42.54 932.69,-46.38"/>
</g>
<!-- 15 -->
<g id="node16" class="node">
<title>15</title>
<path fill="none" stroke="#d88d56" stroke-width="2" stroke-dasharray="5,2" d="M929.5,-180C929.5,-180 825.5,-180 825.5,-180 819.5,-180 813.5,-174 813.5,-168 813.5,-168 813.5,-156 813.5,-156 813.5,-150 819.5,-144 825.5,-144 825.5,-144 929.5,-144 929.5,-144 935.5,-144 941.5,-150 941.5,-156 941.5,-156 941.5,-168 941.5,-168 941.5,-174 935.5,-180 929.5,-180"/>
<text text-anchor="middle" x="877.5" y="-165" font-family="sans" font-size="10.00">markduplicates</text>
<text text-anchor="middle" x="877.5" y="-154" font-family="sans" font-size="10.00">sample: ss_50k_0h_R1</text>
</g>
<!-- 15&#45;&gt;14 -->
<g id="edge15" class="edge">
<title>15&#45;&gt;14</title>
<path fill="none" stroke="grey" stroke-width="2" d="M883.19,-143.7C885.75,-135.9 888.83,-126.51 891.68,-117.83"/>
<polygon fill="grey" stroke="grey" stroke-width="2" points="895.08,-118.7 894.88,-108.1 888.43,-116.51 895.08,-118.7"/>
</g>
<!-- 16 -->
<g id="node17" class="node">
<title>16</title>
<path fill="none" stroke="#bed856" stroke-width="2" stroke-dasharray="5,2" d="M930.5,-252C930.5,-252 814.5,-252 814.5,-252 808.5,-252 802.5,-246 802.5,-240 802.5,-240 802.5,-228 802.5,-228 802.5,-222 808.5,-216 814.5,-216 814.5,-216 930.5,-216 930.5,-216 936.5,-216 942.5,-222 942.5,-228 942.5,-228 942.5,-240 942.5,-240 942.5,-246 936.5,-252 930.5,-252"/>
<text text-anchor="middle" x="872.5" y="-237" font-family="sans" font-size="10.00">bowtie2</text>
<text text-anchor="middle" x="872.5" y="-226" font-family="sans" font-size="10.00">samplesB: ss_50k_0h_R1</text>
</g>
<!-- 16&#45;&gt;15 -->
<g id="edge16" class="edge">
<title>16&#45;&gt;15</title>
<path fill="none" stroke="grey" stroke-width="2" d="M873.74,-215.7C874.29,-207.98 874.95,-198.71 875.56,-190.11"/>
<polygon fill="grey" stroke="grey" stroke-width="2" points="879.06,-190.33 876.28,-180.1 872.07,-189.83 879.06,-190.33"/>
</g>
<!-- 17 -->
<g id="node18" class="node">
<title>17</title>
<path fill="none" stroke="#88d856" stroke-width="2" stroke-dasharray="5,2" d="M932,-324C932,-324 807,-324 807,-324 801,-324 795,-318 795,-312 795,-312 795,-300 795,-300 795,-294 801,-288 807,-288 807,-288 932,-288 932,-288 938,-288 944,-294 944,-300 944,-300 944,-312 944,-312 944,-318 938,-324 932,-324"/>
<text text-anchor="middle" x="869.5" y="-309" font-family="sans" font-size="10.00">cutadapt</text>
<text text-anchor="middle" x="869.5" y="-298" font-family="sans" font-size="10.00">samplesCut: ss_50k_0h_R1</text>
</g>
<!-- 17&#45;&gt;16 -->
<g id="edge17" class="edge">
<title>17&#45;&gt;16</title>
<path fill="none" stroke="grey" stroke-width="2" d="M870.24,-287.7C870.57,-279.98 870.97,-270.71 871.34,-262.11"/>
<polygon fill="grey" stroke="grey" stroke-width="2" points="874.84,-262.25 871.77,-252.1 867.84,-261.95 874.84,-262.25"/>
</g>
<!-- 18 -->
<g id="node19" class="node">
<title>18</title>
<path fill="none" stroke="#56c1d8" stroke-width="2" stroke-dasharray="5,2" d="M772,-396C772,-396 657,-396 657,-396 651,-396 645,-390 645,-384 645,-384 645,-372 645,-372 645,-366 651,-360 657,-360 657,-360 772,-360 772,-360 778,-360 784,-366 784,-372 784,-372 784,-384 784,-384 784,-390 778,-396 772,-396"/>
<text text-anchor="middle" x="714.5" y="-381" font-family="sans" font-size="10.00">unzip</text>
<text text-anchor="middle" x="714.5" y="-370" font-family="sans" font-size="10.00">sample: ss_50k_0h_R1_1</text>
</g>
<!-- 18&#45;&gt;17 -->
<g id="edge18" class="edge">
<title>18&#45;&gt;17</title>
<path fill="none" stroke="grey" stroke-width="2" d="M752.42,-359.88C773.51,-350.35 799.96,-338.41 822.37,-328.28"/>
<polygon fill="grey" stroke="grey" stroke-width="2" points="824.03,-331.37 831.71,-324.07 821.15,-324.99 824.03,-331.37"/>
</g>
<!-- 19 -->
<g id="node20" class="node">
<title>19</title>
<path fill="none" stroke="#56c1d8" stroke-width="2" stroke-dasharray="5,2" d="M929,-396C929,-396 814,-396 814,-396 808,-396 802,-390 802,-384 802,-384 802,-372 802,-372 802,-366 808,-360 814,-360 814,-360 929,-360 929,-360 935,-360 941,-366 941,-372 941,-372 941,-384 941,-384 941,-390 935,-396 929,-396"/>
<text text-anchor="middle" x="871.5" y="-381" font-family="sans" font-size="10.00">unzip</text>
<text text-anchor="middle" x="871.5" y="-370" font-family="sans" font-size="10.00">sample: ss_50k_0h_R1_2</text>
</g>
<!-- 19&#45;&gt;17 -->
<g id="edge19" class="edge">
<title>19&#45;&gt;17</title>
<path fill="none" stroke="grey" stroke-width="2" d="M871.01,-359.7C870.79,-351.98 870.52,-342.71 870.27,-334.11"/>
<polygon fill="grey" stroke="grey" stroke-width="2" points="873.77,-334 869.99,-324.1 866.78,-334.2 873.77,-334"/>
</g>
<!-- 20 -->
<g id="node21" class="node">
<title>20</title>
<path fill="none" stroke="#59d856" stroke-width="2" stroke-dasharray="5,2" d="M1006.5,-108C1006.5,-108 976.5,-108 976.5,-108 970.5,-108 964.5,-102 964.5,-96 964.5,-96 964.5,-84 964.5,-84 964.5,-78 970.5,-72 976.5,-72 976.5,-72 1006.5,-72 1006.5,-72 1012.5,-72 1018.5,-78 1018.5,-84 1018.5,-84 1018.5,-96 1018.5,-96 1018.5,-102 1012.5,-108 1006.5,-108"/>
<text text-anchor="middle" x="991.5" y="-87.5" font-family="sans" font-size="10.00">macs2</text>
</g>
<!-- 20&#45;&gt;13 -->
<g id="edge14" class="edge">
<title>20&#45;&gt;13</title>
<path fill="none" stroke="grey" stroke-width="2" d="M980.38,-71.7C975.14,-63.56 968.8,-53.69 963.02,-44.7"/>
<polygon fill="grey" stroke="grey" stroke-width="2" points="965.85,-42.62 957.5,-36.1 959.96,-46.41 965.85,-42.62"/>
</g>
<!-- 21 -->
<g id="node22" class="node">
<title>21</title>
<path fill="none" stroke="#d88d56" stroke-width="2" stroke-dasharray="5,2" d="M1084.5,-180C1084.5,-180 974.5,-180 974.5,-180 968.5,-180 962.5,-174 962.5,-168 962.5,-168 962.5,-156 962.5,-156 962.5,-150 968.5,-144 974.5,-144 974.5,-144 1084.5,-144 1084.5,-144 1090.5,-144 1096.5,-150 1096.5,-156 1096.5,-156 1096.5,-168 1096.5,-168 1096.5,-174 1090.5,-180 1084.5,-180"/>
<text text-anchor="middle" x="1029.5" y="-165" font-family="sans" font-size="10.00">markduplicates</text>
<text text-anchor="middle" x="1029.5" y="-154" font-family="sans" font-size="10.00">sample: ss_50k_24h_R1</text>
</g>
<!-- 21&#45;&gt;20 -->
<g id="edge20" class="edge">
<title>21&#45;&gt;20</title>
<path fill="none" stroke="grey" stroke-width="2" d="M1020.11,-143.7C1015.74,-135.64 1010.44,-125.89 1005.6,-116.98"/>
<polygon fill="grey" stroke="grey" stroke-width="2" points="1008.63,-115.22 1000.79,-108.1 1002.48,-118.56 1008.63,-115.22"/>
</g>
<!-- 22 -->
<g id="node23" class="node">
<title>22</title>
<path fill="none" stroke="#bed856" stroke-width="2" stroke-dasharray="5,2" d="M1096.5,-252C1096.5,-252 974.5,-252 974.5,-252 968.5,-252 962.5,-246 962.5,-240 962.5,-240 962.5,-228 962.5,-228 962.5,-222 968.5,-216 974.5,-216 974.5,-216 1096.5,-216 1096.5,-216 1102.5,-216 1108.5,-222 1108.5,-228 1108.5,-228 1108.5,-240 1108.5,-240 1108.5,-246 1102.5,-252 1096.5,-252"/>
<text text-anchor="middle" x="1035.5" y="-237" font-family="sans" font-size="10.00">bowtie2</text>
<text text-anchor="middle" x="1035.5" y="-226" font-family="sans" font-size="10.00">samplesB: ss_50k_24h_R1</text>
</g>
<!-- 22&#45;&gt;21 -->
<g id="edge21" class="edge">
<title>22&#45;&gt;21</title>
<path fill="none" stroke="grey" stroke-width="2" d="M1034.02,-215.7C1033.36,-207.98 1032.56,-198.71 1031.82,-190.11"/>
<polygon fill="grey" stroke="grey" stroke-width="2" points="1035.31,-189.77 1030.97,-180.1 1028.33,-190.37 1035.31,-189.77"/>
</g>
<!-- 23 -->
<g id="node24" class="node">
<title>23</title>
<path fill="none" stroke="#88d856" stroke-width="2" stroke-dasharray="5,2" d="M1105,-324C1105,-324 974,-324 974,-324 968,-324 962,-318 962,-312 962,-312 962,-300 962,-300 962,-294 968,-288 974,-288 974,-288 1105,-288 1105,-288 1111,-288 1117,-294 1117,-300 1117,-300 1117,-312 1117,-312 1117,-318 1111,-324 1105,-324"/>
<text text-anchor="middle" x="1039.5" y="-309" font-family="sans" font-size="10.00">cutadapt</text>
<text text-anchor="middle" x="1039.5" y="-298" font-family="sans" font-size="10.00">samplesCut: ss_50k_24h_R1</text>
</g>
<!-- 23&#45;&gt;22 -->
<g id="edge22" class="edge">
<title>23&#45;&gt;22</title>
<path fill="none" stroke="grey" stroke-width="2" d="M1038.51,-287.7C1038.07,-279.98 1037.54,-270.71 1037.05,-262.11"/>
<polygon fill="grey" stroke="grey" stroke-width="2" points="1040.54,-261.89 1036.48,-252.1 1033.55,-262.29 1040.54,-261.89"/>
</g>
<!-- 24 -->
<g id="node25" class="node">
<title>24</title>
<path fill="none" stroke="#56c1d8" stroke-width="2" stroke-dasharray="5,2" d="M1097,-396C1097,-396 976,-396 976,-396 970,-396 964,-390 964,-384 964,-384 964,-372 964,-372 964,-366 970,-360 976,-360 976,-360 1097,-360 1097,-360 1103,-360 1109,-366 1109,-372 1109,-372 1109,-384 1109,-384 1109,-390 1103,-396 1097,-396"/>
<text text-anchor="middle" x="1036.5" y="-381" font-family="sans" font-size="10.00">unzip</text>
<text text-anchor="middle" x="1036.5" y="-370" font-family="sans" font-size="10.00">sample: ss_50k_24h_R1_1</text>
</g>
<!-- 24&#45;&gt;23 -->
<g id="edge23" class="edge">
<title>24&#45;&gt;23</title>
<path fill="none" stroke="grey" stroke-width="2" d="M1037.24,-359.7C1037.57,-351.98 1037.97,-342.71 1038.34,-334.11"/>
<polygon fill="grey" stroke="grey" stroke-width="2" points="1041.84,-334.25 1038.77,-324.1 1034.84,-333.95 1041.84,-334.25"/>
</g>
<!-- 25 -->
<g id="node26" class="node">
<title>25</title>
<path fill="none" stroke="#56c1d8" stroke-width="2" stroke-dasharray="5,2" d="M1260,-396C1260,-396 1139,-396 1139,-396 1133,-396 1127,-390 1127,-384 1127,-384 1127,-372 1127,-372 1127,-366 1133,-360 1139,-360 1139,-360 1260,-360 1260,-360 1266,-360 1272,-366 1272,-372 1272,-372 1272,-384 1272,-384 1272,-390 1266,-396 1260,-396"/>
<text text-anchor="middle" x="1199.5" y="-381" font-family="sans" font-size="10.00">unzip</text>
<text text-anchor="middle" x="1199.5" y="-370" font-family="sans" font-size="10.00">sample: ss_50k_24h_R1_2</text>
</g>
<!-- 25&#45;&gt;23 -->
<g id="edge24" class="edge">
<title>25&#45;&gt;23</title>
<path fill="none" stroke="grey" stroke-width="2" d="M1160.36,-359.88C1138.49,-350.31 1111.04,-338.3 1087.84,-328.15"/>
<polygon fill="grey" stroke="grey" stroke-width="2" points="1089.08,-324.87 1078.51,-324.07 1086.27,-331.28 1089.08,-324.87"/>
</g>
<!-- 26 -->
<g id="node27" class="node">
<title>26</title>
<path fill="none" stroke="#56d8c1" stroke-width="2" stroke-dasharray="5,2" d="M1621,-36C1621,-36 1574,-36 1574,-36 1568,-36 1562,-30 1562,-24 1562,-24 1562,-12 1562,-12 1562,-6 1568,0 1574,0 1574,0 1621,0 1621,0 1627,0 1633,-6 1633,-12 1633,-12 1633,-24 1633,-24 1633,-30 1627,-36 1621,-36"/>
<text text-anchor="middle" x="1597.5" y="-21" font-family="sans" font-size="10.00">bedtools</text>
<text text-anchor="middle" x="1597.5" y="-10" font-family="sans" font-size="10.00">sample: R2</text>
</g>
<!-- 27 -->
<g id="node28" class="node">
<title>27</title>
<path fill="none" stroke="#59d856" stroke-width="2" stroke-dasharray="5,2" d="M1576.5,-108C1576.5,-108 1546.5,-108 1546.5,-108 1540.5,-108 1534.5,-102 1534.5,-96 1534.5,-96 1534.5,-84 1534.5,-84 1534.5,-78 1540.5,-72 1546.5,-72 1546.5,-72 1576.5,-72 1576.5,-72 1582.5,-72 1588.5,-78 1588.5,-84 1588.5,-84 1588.5,-96 1588.5,-96 1588.5,-102 1582.5,-108 1576.5,-108"/>
<text text-anchor="middle" x="1561.5" y="-87.5" font-family="sans" font-size="10.00">macs2</text>
</g>
<!-- 27&#45;&gt;26 -->
<g id="edge25" class="edge">
<title>27&#45;&gt;26</title>
<path fill="none" stroke="grey" stroke-width="2" d="M1570.4,-71.7C1574.5,-63.73 1579.45,-54.1 1583.99,-45.26"/>
<polygon fill="grey" stroke="grey" stroke-width="2" points="1587.24,-46.6 1588.7,-36.1 1581.02,-43.4 1587.24,-46.6"/>
</g>
<!-- 28 -->
<g id="node29" class="node">
<title>28</title>
<path fill="none" stroke="#d88d56" stroke-width="2" stroke-dasharray="5,2" d="M1575.5,-180C1575.5,-180 1471.5,-180 1471.5,-180 1465.5,-180 1459.5,-174 1459.5,-168 1459.5,-168 1459.5,-156 1459.5,-156 1459.5,-150 1465.5,-144 1471.5,-144 1471.5,-144 1575.5,-144 1575.5,-144 1581.5,-144 1587.5,-150 1587.5,-156 1587.5,-156 1587.5,-168 1587.5,-168 1587.5,-174 1581.5,-180 1575.5,-180"/>
<text text-anchor="middle" x="1523.5" y="-165" font-family="sans" font-size="10.00">markduplicates</text>
<text text-anchor="middle" x="1523.5" y="-154" font-family="sans" font-size="10.00">sample: ss_50k_0h_R2</text>
</g>
<!-- 28&#45;&gt;27 -->
<g id="edge27" class="edge">
<title>28&#45;&gt;27</title>
<path fill="none" stroke="grey" stroke-width="2" d="M1532.89,-143.7C1537.26,-135.64 1542.56,-125.89 1547.4,-116.98"/>
<polygon fill="grey" stroke="grey" stroke-width="2" points="1550.52,-118.56 1552.21,-108.1 1544.37,-115.22 1550.52,-118.56"/>
</g>
<!-- 29 -->
<g id="node30" class="node">
<title>29</title>
<path fill="none" stroke="#bed856" stroke-width="2" stroke-dasharray="5,2" d="M1575.5,-252C1575.5,-252 1459.5,-252 1459.5,-252 1453.5,-252 1447.5,-246 1447.5,-240 1447.5,-240 1447.5,-228 1447.5,-228 1447.5,-222 1453.5,-216 1459.5,-216 1459.5,-216 1575.5,-216 1575.5,-216 1581.5,-216 1587.5,-222 1587.5,-228 1587.5,-228 1587.5,-240 1587.5,-240 1587.5,-246 1581.5,-252 1575.5,-252"/>
<text text-anchor="middle" x="1517.5" y="-237" font-family="sans" font-size="10.00">bowtie2</text>
<text text-anchor="middle" x="1517.5" y="-226" font-family="sans" font-size="10.00">samplesB: ss_50k_0h_R2</text>
</g>
<!-- 29&#45;&gt;28 -->
<g id="edge28" class="edge">
<title>29&#45;&gt;28</title>
<path fill="none" stroke="grey" stroke-width="2" d="M1518.98,-215.7C1519.64,-207.98 1520.44,-198.71 1521.18,-190.11"/>
<polygon fill="grey" stroke="grey" stroke-width="2" points="1524.67,-190.37 1522.03,-180.1 1517.69,-189.77 1524.67,-190.37"/>
</g>
<!-- 30 -->
<g id="node31" class="node">
<title>30</title>
<path fill="none" stroke="#88d856" stroke-width="2" stroke-dasharray="5,2" d="M1576,-324C1576,-324 1451,-324 1451,-324 1445,-324 1439,-318 1439,-312 1439,-312 1439,-300 1439,-300 1439,-294 1445,-288 1451,-288 1451,-288 1576,-288 1576,-288 1582,-288 1588,-294 1588,-300 1588,-300 1588,-312 1588,-312 1588,-318 1582,-324 1576,-324"/>
<text text-anchor="middle" x="1513.5" y="-309" font-family="sans" font-size="10.00">cutadapt</text>
<text text-anchor="middle" x="1513.5" y="-298" font-family="sans" font-size="10.00">samplesCut: ss_50k_0h_R2</text>
</g>
<!-- 30&#45;&gt;29 -->
<g id="edge29" class="edge">
<title>30&#45;&gt;29</title>
<path fill="none" stroke="grey" stroke-width="2" d="M1514.49,-287.7C1514.93,-279.98 1515.46,-270.71 1515.95,-262.11"/>
<polygon fill="grey" stroke="grey" stroke-width="2" points="1519.45,-262.29 1516.52,-252.1 1512.46,-261.89 1519.45,-262.29"/>
</g>
<!-- 31 -->
<g id="node32" class="node">
<title>31</title>
<path fill="none" stroke="#56c1d8" stroke-width="2" stroke-dasharray="5,2" d="M1417,-396C1417,-396 1302,-396 1302,-396 1296,-396 1290,-390 1290,-384 1290,-384 1290,-372 1290,-372 1290,-366 1296,-360 1302,-360 1302,-360 1417,-360 1417,-360 1423,-360 1429,-366 1429,-372 1429,-372 1429,-384 1429,-384 1429,-390 1423,-396 1417,-396"/>
<text text-anchor="middle" x="1359.5" y="-381" font-family="sans" font-size="10.00">unzip</text>
<text text-anchor="middle" x="1359.5" y="-370" font-family="sans" font-size="10.00">sample: ss_50k_0h_R2_1</text>
</g>
<!-- 31&#45;&gt;30 -->
<g id="edge30" class="edge">
<title>31&#45;&gt;30</title>
<path fill="none" stroke="grey" stroke-width="2" d="M1397.17,-359.88C1418.13,-350.35 1444.4,-338.41 1466.68,-328.28"/>
<polygon fill="grey" stroke="grey" stroke-width="2" points="1468.29,-331.39 1475.95,-324.07 1465.4,-325.02 1468.29,-331.39"/>
</g>
<!-- 32 -->
<g id="node33" class="node">
<title>32</title>
<path fill="none" stroke="#56c1d8" stroke-width="2" stroke-dasharray="5,2" d="M1574,-396C1574,-396 1459,-396 1459,-396 1453,-396 1447,-390 1447,-384 1447,-384 1447,-372 1447,-372 1447,-366 1453,-360 1459,-360 1459,-360 1574,-360 1574,-360 1580,-360 1586,-366 1586,-372 1586,-372 1586,-384 1586,-384 1586,-390 1580,-396 1574,-396"/>
<text text-anchor="middle" x="1516.5" y="-381" font-family="sans" font-size="10.00">unzip</text>
<text text-anchor="middle" x="1516.5" y="-370" font-family="sans" font-size="10.00">sample: ss_50k_0h_R2_2</text>
</g>
<!-- 32&#45;&gt;30 -->
<g id="edge31" class="edge">
<title>32&#45;&gt;30</title>
<path fill="none" stroke="grey" stroke-width="2" d="M1515.76,-359.7C1515.43,-351.98 1515.03,-342.71 1514.66,-334.11"/>
<polygon fill="grey" stroke="grey" stroke-width="2" points="1518.16,-333.95 1514.23,-324.1 1511.16,-334.25 1518.16,-333.95"/>
</g>
<!-- 33 -->
<g id="node34" class="node">
<title>33</title>
<path fill="none" stroke="#59d856" stroke-width="2" stroke-dasharray="5,2" d="M1667.5,-108C1667.5,-108 1637.5,-108 1637.5,-108 1631.5,-108 1625.5,-102 1625.5,-96 1625.5,-96 1625.5,-84 1625.5,-84 1625.5,-78 1631.5,-72 1637.5,-72 1637.5,-72 1667.5,-72 1667.5,-72 1673.5,-72 1679.5,-78 1679.5,-84 1679.5,-84 1679.5,-96 1679.5,-96 1679.5,-102 1673.5,-108 1667.5,-108"/>
<text text-anchor="middle" x="1652.5" y="-87.5" font-family="sans" font-size="10.00">macs2</text>
</g>
<!-- 33&#45;&gt;26 -->
<g id="edge26" class="edge">
<title>33&#45;&gt;26</title>
<path fill="none" stroke="grey" stroke-width="2" d="M1638.9,-71.7C1632.38,-63.39 1624.43,-53.28 1617.25,-44.14"/>
<polygon fill="grey" stroke="grey" stroke-width="2" points="1619.87,-41.81 1610.94,-36.1 1614.37,-46.13 1619.87,-41.81"/>
</g>
<!-- 34 -->
<g id="node35" class="node">
<title>34</title>
<path fill="none" stroke="#d88d56" stroke-width="2" stroke-dasharray="5,2" d="M1730.5,-180C1730.5,-180 1620.5,-180 1620.5,-180 1614.5,-180 1608.5,-174 1608.5,-168 1608.5,-168 1608.5,-156 1608.5,-156 1608.5,-150 1614.5,-144 1620.5,-144 1620.5,-144 1730.5,-144 1730.5,-144 1736.5,-144 1742.5,-150 1742.5,-156 1742.5,-156 1742.5,-168 1742.5,-168 1742.5,-174 1736.5,-180 1730.5,-180"/>
<text text-anchor="middle" x="1675.5" y="-165" font-family="sans" font-size="10.00">markduplicates</text>
<text text-anchor="middle" x="1675.5" y="-154" font-family="sans" font-size="10.00">sample: ss_50k_24h_R2</text>
</g>
<!-- 34&#45;&gt;33 -->
<g id="edge32" class="edge">
<title>34&#45;&gt;33</title>
<path fill="none" stroke="grey" stroke-width="2" d="M1669.81,-143.7C1667.25,-135.9 1664.17,-126.51 1661.32,-117.83"/>
<polygon fill="grey" stroke="grey" stroke-width="2" points="1664.57,-116.51 1658.12,-108.1 1657.92,-118.7 1664.57,-116.51"/>
</g>
<!-- 35 -->
<g id="node36" class="node">
<title>35</title>
<path fill="none" stroke="#bed856" stroke-width="2" stroke-dasharray="5,2" d="M1741.5,-252C1741.5,-252 1619.5,-252 1619.5,-252 1613.5,-252 1607.5,-246 1607.5,-240 1607.5,-240 1607.5,-228 1607.5,-228 1607.5,-222 1613.5,-216 1619.5,-216 1619.5,-216 1741.5,-216 1741.5,-216 1747.5,-216 1753.5,-222 1753.5,-228 1753.5,-228 1753.5,-240 1753.5,-240 1753.5,-246 1747.5,-252 1741.5,-252"/>
<text text-anchor="middle" x="1680.5" y="-237" font-family="sans" font-size="10.00">bowtie2</text>
<text text-anchor="middle" x="1680.5" y="-226" font-family="sans" font-size="10.00">samplesB: ss_50k_24h_R2</text>
</g>
<!-- 35&#45;&gt;34 -->
<g id="edge33" class="edge">
<title>35&#45;&gt;34</title>
<path fill="none" stroke="grey" stroke-width="2" d="M1679.26,-215.7C1678.71,-207.98 1678.05,-198.71 1677.44,-190.11"/>
<polygon fill="grey" stroke="grey" stroke-width="2" points="1680.93,-189.83 1676.72,-180.1 1673.94,-190.33 1680.93,-189.83"/>
</g>
<!-- 36 -->
<g id="node37" class="node">
<title>36</title>
<path fill="none" stroke="#88d856" stroke-width="2" stroke-dasharray="5,2" d="M1749,-324C1749,-324 1618,-324 1618,-324 1612,-324 1606,-318 1606,-312 1606,-312 1606,-300 1606,-300 1606,-294 1612,-288 1618,-288 1618,-288 1749,-288 1749,-288 1755,-288 1761,-294 1761,-300 1761,-300 1761,-312 1761,-312 1761,-318 1755,-324 1749,-324"/>
<text text-anchor="middle" x="1683.5" y="-309" font-family="sans" font-size="10.00">cutadapt</text>
<text text-anchor="middle" x="1683.5" y="-298" font-family="sans" font-size="10.00">samplesCut: ss_50k_24h_R2</text>
</g>
<!-- 36&#45;&gt;35 -->
<g id="edge34" class="edge">
<title>36&#45;&gt;35</title>
<path fill="none" stroke="grey" stroke-width="2" d="M1682.76,-287.7C1682.43,-279.98 1682.03,-270.71 1681.66,-262.11"/>
<polygon fill="grey" stroke="grey" stroke-width="2" points="1685.16,-261.95 1681.23,-252.1 1678.16,-262.25 1685.16,-261.95"/>
</g>
<!-- 37 -->
<g id="node38" class="node">
<title>37</title>
<path fill="none" stroke="#56c1d8" stroke-width="2" stroke-dasharray="5,2" d="M1742,-396C1742,-396 1621,-396 1621,-396 1615,-396 1609,-390 1609,-384 1609,-384 1609,-372 1609,-372 1609,-366 1615,-360 1621,-360 1621,-360 1742,-360 1742,-360 1748,-360 1754,-366 1754,-372 1754,-372 1754,-384 1754,-384 1754,-390 1748,-396 1742,-396"/>
<text text-anchor="middle" x="1681.5" y="-381" font-family="sans" font-size="10.00">unzip</text>
<text text-anchor="middle" x="1681.5" y="-370" font-family="sans" font-size="10.00">sample: ss_50k_24h_R2_1</text>
</g>
<!-- 37&#45;&gt;36 -->
<g id="edge35" class="edge">
<title>37&#45;&gt;36</title>
<path fill="none" stroke="grey" stroke-width="2" d="M1681.99,-359.7C1682.21,-351.98 1682.48,-342.71 1682.73,-334.11"/>
<polygon fill="grey" stroke="grey" stroke-width="2" points="1686.22,-334.2 1683.01,-324.1 1679.23,-334 1686.22,-334.2"/>
</g>
<!-- 38 -->
<g id="node39" class="node">
<title>38</title>
<path fill="none" stroke="#56c1d8" stroke-width="2" stroke-dasharray="5,2" d="M1905,-396C1905,-396 1784,-396 1784,-396 1778,-396 1772,-390 1772,-384 1772,-384 1772,-372 1772,-372 1772,-366 1778,-360 1784,-360 1784,-360 1905,-360 1905,-360 1911,-360 1917,-366 1917,-372 1917,-372 1917,-384 1917,-384 1917,-390 1911,-396 1905,-396"/>
<text text-anchor="middle" x="1844.5" y="-381" font-family="sans" font-size="10.00">unzip</text>
<text text-anchor="middle" x="1844.5" y="-370" font-family="sans" font-size="10.00">sample: ss_50k_24h_R2_2</text>
</g>
<!-- 38&#45;&gt;36 -->
<g id="edge36" class="edge">
<title>38&#45;&gt;36</title>
<path fill="none" stroke="grey" stroke-width="2" d="M1805.11,-359.88C1783.11,-350.31 1755.49,-338.3 1732.14,-328.15"/>
<polygon fill="grey" stroke="grey" stroke-width="2" points="1733.32,-324.85 1722.76,-324.07 1730.53,-331.27 1733.32,-324.85"/>
</g>
</g>
</svg>
